<svg xmlns="http://www.w3.org/2000/svg" xmlns:xlink="http://www.w3.org/1999/xlink" viewBox="0 0 30 30" fill="#4FDF2A">
  <path d="M15 2C13.343 2 12 3.343 12 5L12 17C12 18.657 13.343 20 15 20C16.657 20 18 18.657 18 17L18 5C18 3.343 16.657 2 15 2 z M 8.984375 11.986328 A 1.0001 1.0001 0 0 0 8 13L8 17C8 20.513997 10.617426 23.430774 14 23.919922L14 26L11 26 A 1.0001 1.0001 0 1 0 11 28L14.832031 28 A 1.0001 1.0001 0 0 0 15.158203 28L19 28 A 1.0001 1.0001 0 1 0 19 26L16 26L16 23.919922C19.382574 23.430774 22 20.513997 22 17L22 13 A 1.0001 1.0001 0 1 0 20 13L20 17C20 19.735431 17.833516 21.933922 15.113281 21.994141 A 1.0001 1.0001 0 0 0 14.984375 21.986328 A 1.0001 1.0001 0 0 0 14.875 21.994141C12.16029 21.92784 10 19.731486 10 17L10 13 A 1.0001 1.0001 0 0 0 8.984375 11.986328 z" fill="#4FDF2A" />
</svg>