<svg xmlns="http://www.w3.org/2000/svg" xmlns:xlink="http://www.w3.org/1999/xlink" viewBox="0 0 30 30" fill="#F12515">
  <path d="M15.001953 5C3.7339531 5 2 8.3223594 2 11.318359C2 12.278359 2.249625 12.943813 2.515625 13.382812C2.789625 13.831812 3.3162187 14.047062 3.8242188 13.914062C5.0932188 13.582062 7.8306094 12.866156 9.0996094 12.535156C9.5166094 12.426156 9.8354063 12.100594 9.9414062 11.683594L10.476562 9.5683594C10.596562 9.0953594 10.988656 8.7465 11.472656 8.6875C12.309656 8.5845 13.684953 8.4453125 15.001953 8.4453125C16.318953 8.4453125 17.691297 8.5845 18.529297 8.6875C19.013297 8.7475 19.405391 9.0953594 19.525391 9.5683594L20.060547 11.683594C20.166547 12.101594 20.48925 12.427156 20.90625 12.535156L26.171875 13.912109C26.681875 14.045109 27.213328 13.828906 27.486328 13.378906C27.751328 12.941906 28 12.275359 28 11.318359C28 8.3223594 26.269953 5 15.001953 5 z M 14.984375 12.986328 A 1.0001 1.0001 0 0 0 14 14L14 23.414062L12.207031 21.621094 A 1.0001 1.0001 0 0 0 11.490234 21.318359 A 1.0001 1.0001 0 0 0 10.792969 23.035156L14.292969 26.535156 A 1.0001 1.0001 0 0 0 15.707031 26.535156L19.207031 23.035156 A 1.0001 1.0001 0 1 0 17.792969 21.621094L16 23.414062L16 14 A 1.0001 1.0001 0 0 0 14.984375 12.986328 z" fill="#F12515" />
</svg>