<svg xmlns="http://www.w3.org/2000/svg" xmlns:xlink="http://www.w3.org/1999/xlink" viewBox="0 0 30 30" fill="#F12515">
  <path d="M15 2C13.343 2 12 3.343 12 5L12 17C12 18.499 13.102063 19.730125 14.539062 19.953125C15.196063 18.130125 16.416 16.577578 18 15.517578L18 5C18 3.343 16.657 2 15 2 z M 9 12C8.448 12 8 12.447 8 13L8 17C8 20.519 10.613 23.431922 14 23.919922L14 26L11 26C10.448 26 10 26.447 10 27C10 27.553 10.448 28 11 28L15.517578 28C14.559578 26.57 14 24.851 14 23C14 22.629 14.028266 22.26525 14.072266 21.90625C11.758266 21.46925 10 19.439 10 17L10 13C10 12.447 9.552 12 9 12 z M 21 12C20.448 12 20 12.447 20 13L20 14.523438C20.638 14.297438 21.305 14.135594 22 14.058594L22 13C22 12.447 21.552 12 21 12 z M 23 16C19.14 16 16 19.14 16 23C16 26.86 19.14 30 23 30C26.86 30 30 26.86 30 23C30 19.14 26.86 16 23 16 z M 23 18C24.017 18 24.962906 18.308031 25.753906 18.832031L18.832031 25.753906C18.308031 24.962906 18 24.017 18 23C18 20.243 20.243 18 23 18 z M 27.167969 20.246094C27.691969 21.037094 28 21.983 28 23C28 25.757 25.757 28 23 28C21.983 28 21.037094 27.691969 20.246094 27.167969L27.167969 20.246094 z" fill="#F12515" />
</svg>