<svg xmlns="http://www.w3.org/2000/svg" xmlns:xlink="http://www.w3.org/1999/xlink" viewBox="0 0 30 30" fill="#F81604">
  <path d="M5 6C3.895 6 3 6.895 3 8L3 20C3 21.105 3.895 22 5 22L25 22C26.105 22 27 21.105 27 20L27 8C27 6.895 26.105 6 25 6L5 6 z M 12 10C12.25575 10 12.511531 10.097469 12.707031 10.292969L15 12.585938L17.292969 10.292969C17.683969 9.9019687 18.316031 9.9019688 18.707031 10.292969C19.098031 10.683969 19.098031 11.316031 18.707031 11.707031L16.414062 14L18.707031 16.292969C19.098031 16.683969 19.098031 17.316031 18.707031 17.707031C18.512031 17.902031 18.256 18 18 18C17.744 18 17.487969 17.902031 17.292969 17.707031L15 15.414062L12.707031 17.707031C12.512031 17.902031 12.256 18 12 18C11.744 18 11.487969 17.902031 11.292969 17.707031C10.901969 17.316031 10.901969 16.683969 11.292969 16.292969L13.585938 14L11.292969 11.707031C10.901969 11.316031 10.901969 10.683969 11.292969 10.292969C11.488469 10.097469 11.74425 10 12 10 z M 10 24 A 1.0001 1.0001 0 1 0 10 26L20 26 A 1.0001 1.0001 0 1 0 20 24L10 24 z" fill="#F81604" />
</svg>