<svg xmlns="http://www.w3.org/2000/svg" xmlns:xlink="http://www.w3.org/1999/xlink" viewBox="0 0 50 50" fill="#4FDF2A">
  <path d="M18.5 1C16.984375 1 15.417969 2.175781 14.78125 3.8125L14.3125 5L11 5C11 4.449219 10.550781 4 10 4L5 4C4.449219 4 4 4.449219 4 5L4 5.34375C1.640625 6.183594 0 8.441406 0 11L0 25C0 28.308594 2.691406 31 6 31L9 31L9 29C9 26.046875 10.644531 23.355469 13.1875 21.96875C13.28125 21.714844 13.410156 21.496094 13.5625 21.28125C13.199219 20.234375 13 19.121094 13 18C13 12.484375 17.484375 8 23 8C28.175781 8 32.433594 11.953125 32.9375 17L38.5 17C38.664063 17 38.835938 17.015625 39 17.03125L39 11C39 7.621094 35.238281 5 32 5L31.6875 5L31.21875 3.8125C30.582031 2.175781 29.015625 1 27.5 1 Z M 6.5 9C7.328125 9 8 9.671875 8 10.5C8 11.328125 7.328125 12 6.5 12C5.671875 12 5 11.328125 5 10.5C5 9.671875 5.671875 9 6.5 9 Z M 23 10C18.589844 10 15 13.589844 15 18C15 18.71875 15.101563 19.417969 15.28125 20.09375C15.515625 20.035156 15.75 20 16 20L21 20C21.886719 20 22.667969 20.386719 23.21875 21L23.9375 21C24.902344 18.640625 27.1875 17 29.5 17L30.9375 17C30.441406 13.058594 27.074219 10 23 10 Z M 29.5 19C27.984375 19 26.417969 20.175781 25.78125 21.8125L25.3125 23L22 23C22 22.449219 21.550781 22 21 22L16 22C15.449219 22 15 22.449219 15 23L15 23.34375C12.640625 24.183594 11 26.445313 11 29L11 43C11 46.308594 13.691406 49 17 49L44 49C47.308594 49 50 46.308594 50 43L50 29C50 25.621094 46.238281 23 43 23L42.6875 23L42.21875 21.8125C41.582031 20.175781 40.015625 19 38.5 19 Z M 34 26C39.515625 26 44 30.484375 44 36C44 41.515625 39.515625 46 34 46C28.484375 46 24 41.515625 24 36C24 30.484375 28.484375 26 34 26 Z M 17.5 27C18.328125 27 19 27.671875 19 28.5C19 29.328125 18.328125 30 17.5 30C16.671875 30 16 29.328125 16 28.5C16 27.671875 16.671875 27 17.5 27 Z M 34 28C29.589844 28 26 31.589844 26 36C26 40.410156 29.589844 44 34 44C38.410156 44 42 40.410156 42 36C42 31.589844 38.410156 28 34 28Z" fill="#4FDF2A" />
</svg>